<?xml version="1.0" encoding="UTF-8" standalone="no"?>
<svg
   xmlns:dc="http://purl.org/dc/elements/1.1/"
   xmlns:cc="http://creativecommons.org/ns#"
   xmlns:rdf="http://www.w3.org/1999/02/22-rdf-syntax-ns#"
   xmlns:svg="http://www.w3.org/2000/svg"
   xmlns="http://www.w3.org/2000/svg"
   xmlns:sodipodi="http://sodipodi.sourceforge.net/DTD/sodipodi-0.dtd"
   xmlns:inkscape="http://www.inkscape.org/namespaces/inkscape"
   inkscape:version="1.0 (4035a4fb49, 2020-05-01)"
   height="312.98563"
   width="1293.0907"
   sodipodi:docname="caladaptR-logo_v1.svg"
   class="logo"
   fill="#333333"
   preserveAspectRatio="xMidYMid meet"
   viewBox="-117 460.1 1293.0907 312.98562"
   id="layer"
   version="1.1">
  <metadata
     id="metadata28">
    <rdf:RDF>
      <cc:Work
         rdf:about="">
        <dc:format>image/svg+xml</dc:format>
        <dc:type
           rdf:resource="http://purl.org/dc/dcmitype/StillImage" />
        <dc:title></dc:title>
      </cc:Work>
    </rdf:RDF>
  </metadata>
  <defs
     id="defs26">
    <linearGradient
       gradientTransform="matrix(0.59200603,0,0,0.60409011,759.87056,368.64039)"
       id="gradientFill-2"
       x1="301.02603"
       x2="703.0675"
       y1="151.4006"
       y2="553.44208"
       gradientUnits="userSpaceOnUse"
       spreadMethod="pad">
      <stop
         offset="0"
         stop-color="rgb(39,109,195)"
         stop-opacity="1"
         id="stop7" />
      <stop
         offset="1"
         stop-color="rgb(22,92,170)"
         stop-opacity="1"
         id="stop9" />
    </linearGradient>
  </defs>
  <sodipodi:namedview
     inkscape:current-layer="layer"
     inkscape:window-maximized="1"
     inkscape:window-y="-8"
     inkscape:window-x="-8"
     inkscape:cy="335.57644"
     inkscape:cx="1140.5761"
     inkscape:zoom="0.71667151"
     inkscape:guide-bbox="true"
     showguides="true"
     fit-margin-bottom="0"
     fit-margin-right="0"
     fit-margin-left="0"
     fit-margin-top="0"
     showgrid="false"
     id="namedview24"
     inkscape:window-height="1002"
     inkscape:window-width="1920"
     inkscape:pageshadow="2"
     inkscape:pageopacity="0"
     guidetolerance="10"
     gridtolerance="10"
     objecttolerance="10"
     borderopacity="1"
     bordercolor="#666666"
     pagecolor="#ffffff">
    <sodipodi:guide
       id="guide46"
       orientation="0,-1"
       position="539.99634,70.168984" />
  </sodipodi:namedview>
  <path
     d="m 23.669503,695.18564 c -11.9,4.9 -23.49999964,7.7 -34,7.7 -19.3,0 -35.4,-5.6 -48,-17.2 -13,-11.9 -19.6,-27.3 -19.6,-46.2 0,-18.2 6.3,-33.6 19.3,-45.9 13,-12.3 29.1,-18.6 48.3,-18.6 10.90000036,0 22.4,2.5 34,7.7 v 32.6 c -12.3,-7.4 -23.09999964,-10.9 -31.8999996,-10.9 -24.2000004,0 -36.1000004,11.6 -36.1000004,35 0,22.8 11.9,34 36.1000004,34 11.2,0 21.6999996,-3.9 31.8999996,-11.6 z"
     id="path2" />
  <path
     d="m 165.8695,684.38564 -31.2,14 v -17.9 c -7.7,15.1 -20.7,22.4 -38.499997,22.4 -18.2,0 -32.2,-6.3 -42.4,-18.9 -9.1,-11.6 -14,-26.6 -14,-45.2 0,-17.9 5.6,-32.9 16.5,-45.5 10.9,-12.3 24.2,-18.6 39.9,-18.6 17.499997,0 30.499997,6.7 38.199997,20.3 v -15.8 h 31.2 v 105 h 0.3 z m -31.2,-48.7 c 0,-9.5 -2.5,-17.2 -7.4,-23.1 -5.3,-6.3 -12.6,-9.5 -22.4,-9.5 -9.099997,0 -16.499997,3.2 -22.399997,9.5 -6,6.7 -8.8,15.4 -8.8,26.3 0,10.9 2.8,19.3 8.1,25.9 5.3,6.3 12.6,9.5 21.399997,9.5 10.9,0 18.6,-2.8 23.5,-8.8 5.5,-6 8,-15.8 8,-29.8 z"
     id="path4" />
  <path
     d="m 228.1695,698.38564 h -31.5 v -187.6 l 31.5,-37.5 z"
     id="path6" />
  <path
     d="m 379.8,683.28564 -31.2,15.1 v -17.9 c -7.7,15.1 -20.7,22.4 -38.5,22.4 -18.2,0 -32.2,-6.3 -42.4,-18.9 -9.1,-11.6 -14,-26.6 -14,-45.2 0,-17.9 5.6,-32.9 16.5,-45.5 10.9,-12.3 24.2,-18.6 39.9,-18.6 17.5,0 30.5,6.7 38.2,20.3 v -15.8 h 31.2 v 104 h 0.3 z m -31.1,-47.6 c 0,-9.5 -2.5,-17.2 -7.4,-23.1 -5.3,-6.3 -12.6,-9.5 -22.4,-9.5 -9.1,0 -16.5,3.2 -22.4,9.5 -6,6.7 -8.8,15.4 -8.8,26.3 0,10.9 2.8,19.3 8.1,25.9 5.3,6.3 12.6,9.5 21.4,9.5 10.9,0 18.6,-2.8 23.5,-8.8 5.2,-6 8,-15.8 8,-29.8 z"
     id="path8" />
  <path
     d="m 529,698.38564 h -30.8 v -17.9 c -7.7,15.1 -20.7,22.4 -38.5,22.4 -18.2,0 -32.2,-6.3 -42.4,-18.9 -9.5,-11.6 -14,-26.6 -14,-45.2 0,-17.9 5.6,-32.9 16.5,-45.5 10.9,-12.3 24.5,-18.6 40.3,-18.6 17.5,0 30.5,6.7 38.2,20.3 0,-1.8 0,-4.2 -0.3,-7.4 -0.4,-3.2 -0.4,-6 -0.4,-8.4 v -69 l 31.5,-37.5 v 225.7 z m -30.8,-62.7 c 0,-9.5 -2.5,-17.2 -7.4,-23.1 -5.3,-6.3 -13,-9.5 -22.4,-9.5 -9.1,0 -16.8,3.2 -22.4,9.5 -6,6.7 -9.1,15.4 -9.1,26.3 0,10.9 2.8,19.3 8.1,25.9 5.6,6.3 12.6,9.5 21.4,9.5 10.9,0 18.6,-2.8 23.8,-8.8 5.2,-6 8,-15.8 8,-29.8 z"
     id="path10" />
  <path
     d="m 678.1,689.28564 -31.2,9.5 v -17.9 c -7.7,15.1 -20.7,22.4 -38.5,22.4 -18.2,0 -32.2,-6.3 -42.4,-18.9 -9.1,-11.6 -14,-26.6 -14,-45.2 0,-17.9 5.6,-32.9 16.5,-45.5 10.9,-12.3 24.2,-18.6 39.9,-18.6 17.5,0 30.5,6.7 38.2,20.3 v -15.8 h 31.2 v 109.7 z m -31.2,-53.6 c 0,-9.5 -2.5,-17.2 -7.4,-23.1 -5.3,-6.3 -12.6,-9.5 -22.4,-9.5 -9.1,0 -16.5,3.2 -22.4,9.5 -6,6.7 -8.8,15.4 -8.8,26.3 0,10.9 2.8,19.3 8.1,25.9 5.3,6.3 12.6,9.5 21.4,9.5 10.9,0 18.6,-2.8 23.5,-8.8 5.6,-6 8,-15.8 8,-29.8 z"
     id="path12" />
  <path
     d="m 834.2,638.88564 c 0,19.6 -5.6,35.4 -16.5,47.3 -10.5,11.2 -23.8,16.8 -40.3,16.8 -17.5,0 -30.5,-6.7 -38.2,-19.6 0,1.4 0,3.9 0.3,7 0.3,3.1 0.3,6 0.3,8.1 v 74.6 h -31.5 v -193.7 h 30.8 v 17.2 c 7.7,-14.4 20.3,-21.7 38.2,-21.7 18.2,0 32.6,6.3 42.7,18.6 9.7,11.8 14.2,26.8 14.2,45.4 z m -33.6,0 c 0,-24.5 -9.8,-36.4 -29.8,-36.4 -21,0 -31.5,13.3 -31.5,39.9 0,9.5 2.5,17.2 7.7,22.8 5.3,6 12.6,9.1 22.1,9.1 21,-0.1 31.5,-11.6 31.5,-35.4 z"
     id="path14" />
  <path
     d="m 913.7,606.98564 h -22.4 v 78.8 l -31.2,13 v -91.4 H 845 v -27.3 h 15.1 v -50.8 h 31.2 v 50.4 h 22.4 z"
     id="path16" />
  <path
     style="fill:url(#gradientFill-2);stroke-width:0.598018"
     d="m 1088.7801,594.09301 c 0,0 13.05,3.93795 20.6316,7.77423 2.6307,1.33119 7.1822,3.98758 10.4653,7.47522 3.2162,3.41587 4.7842,6.87717 4.7842,6.87717 l 51.4295,86.71254 -83.1244,0.0371 -38.8712,-72.99522 c 0,0 -7.9596,-13.67606 -12.8574,-17.64148 -4.0856,-3.30764 -5.8276,-4.48514 -9.8672,-4.48514 -2.8119,0 -19.7502,0 -19.7502,0 l 0.016,95.06921 -73.55614,0.0311 V 460.1 h 147.71024 c 0,0 67.277,1.21338 67.277,65.22099 0,64.00762 -64.2869,68.77202 -64.2869,68.77202 z m -31.9939,-81.31604 -44.5302,-0.0287 -0.022,41.29312 44.5523,-0.0144 c 0,0 20.6316,-0.064 20.6316,-21.00537 0,-21.36238 -20.6316,-20.24469 -20.6316,-20.24469 z"
     fill="url(#gradientFill-2)"
     fill-rule="evenodd"
     id="path16-4" />
</svg>
