<?xml version="1.0" encoding="UTF-8" standalone="no"?>
<svg
   xmlns:dc="http://purl.org/dc/elements/1.1/"
   xmlns:cc="http://creativecommons.org/ns#"
   xmlns:rdf="http://www.w3.org/1999/02/22-rdf-syntax-ns#"
   xmlns:svg="http://www.w3.org/2000/svg"
   xmlns="http://www.w3.org/2000/svg"
   xmlns:sodipodi="http://sodipodi.sourceforge.net/DTD/sodipodi-0.dtd"
   xmlns:inkscape="http://www.inkscape.org/namespaces/inkscape"
   inkscape:version="1.0 (4035a4fb49, 2020-05-01)"
   height="300.39999"
   width="1537.405"
   sodipodi:docname="caladaptpy-beta_logo.svg"
   xml:space="preserve"
   viewBox="0 0 1537.405 300.39999"
   y="0px"
   x="0px"
   id="layer"
   version="1.1"><metadata
   id="metadata25"><rdf:RDF><cc:Work
       rdf:about=""><dc:format>image/svg+xml</dc:format><dc:type
         rdf:resource="http://purl.org/dc/dcmitype/StillImage" /><dc:title></dc:title></cc:Work></rdf:RDF></metadata><defs
   id="defs23" />
<style
   id="style2"
   type="text/css">
	.st0{fill:#333333;}
	.st1{fill-rule:evenodd;clip-rule:evenodd;fill:url(#path16-4_1_);}
	.st2{font-family:'LucidaFax-Italic';}
	.st3{font-size:124.766px;}
</style>
<sodipodi:namedview
   showguides="true"
   showgrid="false"
   pagecolor="#ffffff"
   objecttolerance="10"
   inkscape:zoom="0.71667151"
   inkscape:window-y="-9"
   inkscape:window-x="-9"
   inkscape:window-width="1920"
   inkscape:window-maximized="1"
   inkscape:window-height="1001"
   inkscape:pageshadow="2"
   inkscape:pageopacity="0"
   inkscape:guide-bbox="true"
   inkscape:document-rotation="0"
   inkscape:cy="322.97644"
   inkscape:cx="856.17833"
   inkscape:current-layer="layer"
   id="namedview24"
   guidetolerance="10"
   gridtolerance="10"
   fit-margin-top="0"
   fit-margin-right="0"
   fit-margin-left="0"
   fit-margin-bottom="0"
   borderopacity="1"
   bordercolor="#666666">
	<sodipodi:guide
   position="-11.482616,0.22417595"
   orientation="0,-1"
   id="guide46" />
</sodipodi:namedview>
<path
   d="m 101.6,222.5 c -11.9,4.9 -23.5,7.7 -34,7.7 -19.3,0 -35.4,-5.6 -48,-17.2 C 6.6,201.1 0,185.7 0,166.8 c 0,-18.2 6.3,-33.6 19.3,-45.9 13,-12.3 29.1,-18.6 48.3,-18.6 10.9,0 22.4,2.5 34,7.7 v 32.6 c -12.3,-7.4 -23.1,-10.9 -31.9,-10.9 -24.2,0 -36.1,11.6 -36.1,35 0,22.8 11.9,34 36.1,34 11.2,0 21.7,-3.9 31.9,-11.6 z"
   class="st0"
   id="path2" />
<path
   d="m 243.8,211.7 -31.2,14 v -17.9 c -7.7,15.1 -20.7,22.4 -38.5,22.4 -18.2,0 -32.2,-6.3 -42.4,-18.9 -9.1,-11.6 -14,-26.6 -14,-45.2 0,-17.9 5.6,-32.9 16.5,-45.5 10.9,-12.3 24.2,-18.6 39.9,-18.6 17.5,0 30.5,6.7 38.2,20.3 v -15.8 h 31.2 v 105 h 0.3 z M 212.6,163 c 0,-9.5 -2.5,-17.2 -7.4,-23.1 -5.3,-6.3 -12.6,-9.5 -22.4,-9.5 -9.1,0 -16.5,3.2 -22.4,9.5 -6,6.7 -8.8,15.4 -8.8,26.3 0,10.9 2.8,19.3 8.1,25.9 5.3,6.3 12.6,9.5 21.4,9.5 10.9,0 18.6,-2.8 23.5,-8.8 5.5,-6 8,-15.8 8,-29.8 z"
   class="st0"
   id="path4" />
<path
   d="M 306.1,225.7 H 274.6 V 38.1 L 306.1,0.6 Z"
   class="st0"
   id="path6" />
<path
   d="m 457.7,210.6 -31.2,15.1 v -17.9 c -7.7,15.1 -20.7,22.4 -38.5,22.4 -18.2,0 -32.2,-6.3 -42.4,-18.9 -9.1,-11.6 -14,-26.6 -14,-45.2 0,-17.9 5.6,-32.9 16.5,-45.5 C 359,108.3 372.3,102 388,102 c 17.5,0 30.5,6.7 38.2,20.3 v -15.8 h 31.2 v 104 h 0.3 z M 426.6,163 c 0,-9.5 -2.5,-17.2 -7.4,-23.1 -5.3,-6.3 -12.6,-9.5 -22.4,-9.5 -9.1,0 -16.5,3.2 -22.4,9.5 -6,6.7 -8.8,15.4 -8.8,26.3 0,10.9 2.8,19.3 8.1,25.9 5.3,6.3 12.6,9.5 21.4,9.5 10.9,0 18.6,-2.8 23.5,-8.8 5.2,-6 8,-15.8 8,-29.8 z"
   class="st0"
   id="path8" />
<path
   d="m 606.9,225.7 h -30.8 v -17.9 c -7.7,15.1 -20.7,22.4 -38.5,22.4 -18.2,0 -32.2,-6.3 -42.4,-18.9 -9.5,-11.6 -14,-26.6 -14,-45.2 0,-17.9 5.6,-32.9 16.5,-45.5 10.9,-12.3 24.5,-18.6 40.3,-18.6 17.5,0 30.5,6.7 38.2,20.3 0,-1.8 0,-4.2 -0.3,-7.4 -0.4,-3.2 -0.4,-6 -0.4,-8.4 v -69 L 607,0 V 225.7 Z M 576.1,163 c 0,-9.5 -2.5,-17.2 -7.4,-23.1 -5.3,-6.3 -13,-9.5 -22.4,-9.5 -9.1,0 -16.8,3.2 -22.4,9.5 -6,6.7 -9.1,15.4 -9.1,26.3 0,10.9 2.8,19.3 8.1,25.9 5.6,6.3 12.6,9.5 21.4,9.5 10.9,0 18.6,-2.8 23.8,-8.8 5.2,-6 8,-15.8 8,-29.8 z"
   class="st0"
   id="path10" />
<path
   d="m 756,216.6 -31.2,9.5 v -17.9 c -7.7,15.1 -20.7,22.4 -38.5,22.4 -18.2,0 -32.2,-6.3 -42.4,-18.9 -9.1,-11.6 -14,-26.6 -14,-45.2 0,-17.9 5.6,-32.9 16.5,-45.5 10.9,-12.3 24.2,-18.6 39.9,-18.6 17.5,0 30.5,6.7 38.2,20.3 v -15.8 h 31.2 V 216.6 Z M 724.8,163 c 0,-9.5 -2.5,-17.2 -7.4,-23.1 -5.3,-6.3 -12.6,-9.5 -22.4,-9.5 -9.1,0 -16.5,3.2 -22.4,9.5 -6,6.7 -8.8,15.4 -8.8,26.3 0,10.9 2.8,19.3 8.1,25.9 5.3,6.3 12.6,9.5 21.4,9.5 10.9,0 18.6,-2.8 23.5,-8.8 5.6,-6 8,-15.8 8,-29.8 z"
   class="st0"
   id="path12" />
<path
   d="m 912.1,166.2 c 0,19.6 -5.6,35.4 -16.5,47.3 -10.5,11.2 -23.8,16.8 -40.3,16.8 -17.5,0 -30.5,-6.7 -38.2,-19.6 0,1.4 0,3.9 0.3,7 0.3,3.1 0.3,6 0.3,8.1 v 74.6 H 786.2 V 106.7 H 817 v 17.2 c 7.7,-14.4 20.3,-21.7 38.2,-21.7 18.2,0 32.6,6.3 42.7,18.6 9.7,11.8 14.2,26.8 14.2,45.4 z m -33.6,0 c 0,-24.5 -9.8,-36.4 -29.8,-36.4 -21,0 -31.5,13.3 -31.5,39.9 0,9.5 2.5,17.2 7.7,22.8 5.3,6 12.6,9.1 22.1,9.1 21,-0.1 31.5,-11.6 31.5,-35.4 z"
   class="st0"
   id="path14" />
<path
   d="m 991.6,134.3 h -22.4 v 78.8 l -31.2,13 V 134.7 H 922.9 V 107.4 H 938 V 56.6 h 31.2 V 107 h 22.4 z"
   class="st0"
   id="path16" />
<linearGradient
   gradientTransform="matrix(0.592,0,0,-0.6041,993.2797,570.6465)"
   y2="459.71359"
   x2="393.40009"
   y1="775.81317"
   x1="77.300499"
   gradientUnits="userSpaceOnUse"
   id="path16-4_1_">
	<stop
   id="stop14"
   style="stop-color:#276DC3"
   offset="0" />
	<stop
   id="stop16"
   style="stop-color:#165CAA"
   offset="1" />
</linearGradient>
<path
   style="fill:url(#path16-4_1_)"
   d="m 1100.8,171.1 c 0,-34.4 -9.8,-52 -29.4,-53 -7.8,-0.4 -15.4,0.9 -22.8,3.7 -5.9,2.1 -9.9,4.2 -12,6.3 v 82 c 12.5,7.9 23.7,11.5 33.4,11 20.5,-1.3 30.8,-18 30.8,-50 z m 24.2,1.4 c 0,17.5 -4.1,32 -12.3,43.5 -9.2,13 -21.9,19.8 -38.2,20.1 -12.3,0.4 -24.9,-3.5 -37.9,-11.5 v 74.6 l -21,-7.5 V 126.2 c 3.5,-4.2 7.9,-7.9 13.3,-11 12.5,-7.3 27.7,-11 45.6,-11.2 l 0.3,0.3 c 16.4,-0.2 29,6.5 37.8,20.1 8.2,12.5 12.4,28.5 12.4,48.1 z m 128.5,48.9 c 0,23.4 -2.3,39.6 -7,48.7 -4.7,9 -13.7,16.2 -26.9,21.6 -10.7,4.2 -22.4,6.5 -34.8,6.9 l -3.5,-13.3 c 12.7,-1.7 21.6,-3.5 26.8,-5.2 10.2,-3.5 17.2,-8.7 21,-15.8 3.1,-5.8 4.6,-16.8 4.6,-33.1 v -5.5 c -14.4,6.5 -29.4,9.8 -45.2,9.8 -10.4,0 -19.5,-3.2 -27.4,-9.8 -8.8,-7.1 -13.3,-16.1 -13.3,-27.1 v -87.5 l 21,-7.2 V 192 c 0,9.4 3,16.7 9.1,21.7 6.1,5.1 13.9,7.5 23.6,7.3 9.6,-0.2 20,-3.9 30.9,-11.2 V 107.2 h 21 z"
   class="st1"
   id="path16-4" />
<text
   y="225.68581"
   x="1271.9727"
   id="text20"
   class="st0 st2 st3">beta</text>
</svg>
